# xmcd CD database file
#
# Track frame offsets:
#	150
#	14504
#	29315
#	41110
#	55092
#	69465
#	82596
#	96357
#	108647
#	121668
#	134779
#	148914
#	163175
#	177808
#	191465
#	203525
#	217908
#	230983
#	244581
#	257390
#	269108
#	281166
#
# Disc length: 3932 seconds
#
# Revision: 0
# Processed by: cddbd v1.5.2PL0 Copyright (c) Steve Scherf et al.
# Submitted via: CDex 1.70beta2
#
DISCID=470f5a16
DTITLE=Earl Hines - Giants of Jazz Disc 1
DYEAR=1900
DGENRE=Jazz
TTITLE0=Sweet Sue, Just You: Jimmie Noone’s Apex Club Orchestra 
TTITLE1=Four or Five Times: Jimmie Noone’s Apex Club Orchestra 
TTITLE2=Every Evening: Jimmie Noone’s Apex Club Orchestra
TTITLE3=Skip the Gutter: Louis Armstrong and His Hot Five
TTITLE4=A Monday Date: Louis Armstrong and His Hot Five
TTITLE5=No, Papa, No: Louis Armstrong and His Orchestra 
TTITLE6=Beau Koo Jack: Louis Armstrong and His Savoy Ballroom Five 
TTITLE7=Weather Bird: Louis Armstrong and Earl Hines
TTITLE8=Stowaway: Earl Hines
TTITLE9=Caution Blues: Earl Hines 
TTITLE10=Ain’t Got Nobody: Earl Hines 
TTITLE11=Fifty‑Seven Varieties: Earl Hines
TTITLE12=Everybody Loves My Baby: Earl Hines and His Orchestra
TTITLE13=Blue Drag: Earl Hines and His Orchestra
TTITLE14=Down Among The Sheltering Palms: Earl Hines
TTITLE15=Rosetta: Earl Hines and His Orchestra
TTITLE16=Cavernism: Earl Hines and His Orchestra
TTITLE17=Harlem Lament: Earl Hines and His Orchestra
TTITLE18=Maple Leaf Rag: Earl Hines and His Orchestra 
TTITLE19=Pianology: Earl Hines and His Orchestra
TTITLE20=G. T. Stomp: Earl Hines and His Orchestra
TTITLE21=Father Steps In: Earl Hines and His Orchestra 
EXTD=
EXTT0=
EXTT1=
EXTT2=
EXTT3=
EXTT4=
EXTT5=
EXTT6=
EXTT7=
EXTT8=
EXTT9=
EXTT10=
EXTT11=
EXTT12=
EXTT13=
EXTT14=
EXTT15=
EXTT16=
EXTT17=
EXTT18=
EXTT19=
EXTT20=
EXTT21=
PLAYORDER=
